<svg width="40" height="40" viewBox="0 0 40 40" fill="none" xmlns="http://www.w3.org/2000/svg">
<path fill-rule="evenodd" clip-rule="evenodd" d="M12.0781 16.6667C12.0781 14.567 12.9122 12.5534 14.3969 11.0687C15.8815 9.58408 17.8952 8.75 19.9948 8.75C22.0944 8.75 24.1081 9.58408 25.5927 11.0687C27.0774 12.5534 27.9115 14.567 27.9115 16.6667C27.9115 18.7663 27.0774 20.7799 25.5927 22.2646C24.1081 23.7493 22.0944 24.5833 19.9948 24.5833C17.8952 24.5833 15.8815 23.7493 14.3969 22.2646C12.9122 20.7799 12.0781 18.7663 12.0781 16.6667ZM19.9948 11.25C18.5582 11.25 17.1805 11.8207 16.1646 12.8365C15.1488 13.8523 14.5781 15.2301 14.5781 16.6667C14.5781 18.1033 15.1488 19.481 16.1646 20.4968C17.1805 21.5126 18.5582 22.0833 19.9948 22.0833C21.4314 22.0833 22.8091 21.5126 23.825 20.4968C24.8408 19.481 25.4115 18.1033 25.4115 16.6667C25.4115 15.2301 24.8408 13.8523 23.825 12.8365C22.8091 11.8207 21.4314 11.25 19.9948 11.25Z" fill="#0D99FF"/>
<path fill-rule="evenodd" clip-rule="evenodd" d="M5.87085 14.7618C6.15648 11.3068 7.73054 8.08538 10.2807 5.73683C12.8308 3.38829 16.1707 2.08426 19.6375 2.0835H20.3575C23.8244 2.08426 27.1642 3.38829 29.7144 5.73683C32.2645 8.08538 33.8386 11.3068 34.1242 14.7618C34.4419 18.6107 33.2528 22.4326 30.8075 25.4218L22.8192 35.1902C22.4773 35.6082 22.0468 35.9451 21.5588 36.1764C21.0709 36.4077 20.5376 36.5277 19.9975 36.5277C19.4575 36.5277 18.9242 36.4077 18.4362 36.1764C17.9482 35.9451 17.5177 35.6082 17.1759 35.1902L9.18752 25.4218C6.74225 22.4326 5.55313 18.6107 5.87085 14.7618ZM19.6375 4.5835C16.7985 4.5847 14.0637 5.65291 11.9755 7.57624C9.88734 9.49958 8.59833 12.1375 8.36419 14.9668C8.09966 18.17 9.08919 21.3507 11.1242 23.8385L19.1125 33.6085C19.2199 33.7399 19.3552 33.8458 19.5085 33.9186C19.6619 33.9913 19.8295 34.029 19.9992 34.029C20.1689 34.029 20.3365 33.9913 20.4899 33.9186C20.6432 33.8458 20.7785 33.7399 20.8859 33.6085L28.8742 23.8385C30.908 21.3502 31.8963 18.1695 31.6309 14.9668C31.3967 12.1372 30.1074 9.49906 28.0189 7.57568C25.9303 5.6523 23.1951 4.58428 20.3559 4.5835H19.6375Z" fill="#0D99FF"/>
</svg>
