<svg width="30" height="30" viewBox="0 0 39 39" fill="none" xmlns="http://www.w3.org/2000/svg">
<path d="M38.1745 17.5688C38.2739 19.1251 38.2739 20.7376 38.1745 22.2938C37.6607 30.2495 31.4132 36.587 23.5682 37.1063C20.8587 37.2849 18.1403 37.2849 15.4307 37.1063C14.4745 37.0411 13.5344 36.8266 12.6445 36.4707C11.6845 36.077 11.2045 35.8782 10.9589 35.9082C10.7151 35.9382 10.3607 36.1988 9.65387 36.722C8.40512 37.6407 6.83199 38.3045 4.49762 38.2463C3.31824 38.2182 2.72949 38.2032 2.46512 37.7532C2.20074 37.3032 2.52887 36.6807 3.18699 35.4338C4.10012 33.7051 4.67762 31.7251 3.80199 30.1407C2.29262 27.8757 1.01199 25.1926 0.824493 22.2957C0.725169 20.7223 0.725169 19.1442 0.824493 17.5707C1.33824 9.6151 7.58574 3.27948 15.4307 2.75823C17.6845 2.60823 18.1514 2.58573 20.437 2.68885" stroke="#0D99FF" stroke-width="1.5" stroke-linecap="round" stroke-linejoin="round"/>
<path d="M38.25 7.3125C38.25 9.05298 37.5586 10.7222 36.3279 11.9529C35.0972 13.1836 33.428 13.875 31.6875 13.875C29.947 13.875 28.2778 13.1836 27.0471 11.9529C25.8164 10.7222 25.125 9.05298 25.125 7.3125C25.125 5.57202 25.8164 3.90282 27.0471 2.67211C28.2778 1.4414 29.947 0.75 31.6875 0.75C33.428 0.75 35.0972 1.4414 36.3279 2.67211C37.5586 3.90282 38.25 5.57202 38.25 7.3125Z" stroke="#0D99FF" stroke-width="1.5" stroke-linecap="round" stroke-linejoin="round"/>
</svg>
