<svg width="40" height="40" viewBox="0 0 40 40" fill="none" xmlns="http://www.w3.org/2000/svg">
<g clip-path="url(#clip0_2586_28510)">
<path d="M34.7933 13.7556L34.7934 13.7556L34.7939 13.7494C35.0065 11.2209 35.7669 8.90916 37.1049 6.78745L37.4307 6.27079L36.9907 5.84713L31.6035 0.659931L31.1207 0.195053L30.6047 0.622763C29.0226 1.93411 27.2338 2.65381 25.2004 2.78126L25.1913 2.78183L25.1823 2.78262C23.3083 2.94573 21.5416 2.60452 19.8723 1.75497L19.5423 1.58702L19.2083 1.74692C17.4773 2.57561 15.7084 2.9187 13.865 2.78201C11.993 2.63212 10.2029 1.95021 8.70563 0.816636L8.19525 0.43023L7.73348 0.873596L2.33268 6.0592L1.90508 6.46976L2.20577 6.98063C3.47832 9.14266 4.17963 11.3906 4.31701 13.7306L4.3171 13.732C4.37617 14.7067 4.08575 16.1514 3.3401 18.1437L3.34005 18.1437L3.33679 18.1528C2.986 19.128 2.67954 20.1186 2.41833 21.1216L2.41597 21.1307L2.41383 21.1398C2.22193 21.9603 2.09465 22.6566 2.05019 23.2034L2.04811 23.229L2.04778 23.2547C2.01851 25.5714 2.69738 27.6762 4.08242 29.5375L4.08987 29.5475L4.09764 29.5573C5.17506 30.909 6.90881 32.3536 9.23656 33.8944L9.27694 33.9211L9.32043 33.9424C11.8088 35.1621 13.7951 35.9865 15.2366 36.3568L16.3044 36.8356C16.3053 36.836 16.3063 36.8364 16.3072 36.8369C16.5516 36.9489 16.813 37.0621 17.0747 37.1754C17.1877 37.2244 17.3007 37.2733 17.4124 37.3222C18.1948 37.7786 18.6599 38.2256 18.8813 38.6122L19.4918 39.6779L20.161 38.648C20.4587 38.1899 20.9545 37.7486 21.6889 37.3272C22.1713 37.1273 22.6499 36.9181 23.1244 36.6998L23.971 36.3355L23.9835 36.3301L23.9957 36.3243C24.264 36.1972 24.6261 36.0449 25.0792 35.8722L25.0792 35.8722C25.646 35.6562 26.2157 35.4479 26.7882 35.2475C28.1372 34.7882 29.1693 34.3367 29.8572 33.9037L29.8689 33.8964L29.8803 33.8886C32.1373 32.3494 33.833 30.9333 34.9352 29.6342L34.947 29.6203L34.9581 29.6058C36.3932 27.7372 37.0955 25.6189 37.0637 23.2557L37.0633 23.2306L37.0613 23.2056C36.9732 22.1113 36.5075 20.4556 35.7213 18.3105C34.983 16.2458 34.7011 14.7547 34.7933 13.7556Z" stroke="#0D99FF" stroke-width="1.5"/>
</g>
<defs>
<clipPath id="clip0_2586_28510">
<rect width="40" height="40" fill="white"/>
</clipPath>
</defs>
</svg>
