<svg width="30" height="35" viewBox="0 0 30 35" fill="none" xmlns="http://www.w3.org/2000/svg">
<path fill-rule="evenodd" clip-rule="evenodd" d="M0.870855 12.7618C1.15648 9.30679 2.73054 6.08538 5.28069 3.73683C7.83084 1.38829 11.1707 0.0842557 14.6375 0.0834961H15.3575C18.8244 0.0842557 22.1642 1.38829 24.7144 3.73683C27.2645 6.08538 28.8386 9.30679 29.1242 12.7618C29.4419 16.6107 28.2528 20.4326 25.8075 23.4218L17.8192 33.1902C17.4773 33.6082 17.0468 33.9451 16.5588 34.1764C16.0709 34.4077 15.5376 34.5277 14.9975 34.5277C14.4575 34.5277 13.9242 34.4077 13.4362 34.1764C12.9482 33.9451 12.5177 33.6082 12.1759 33.1902L4.18752 23.4218C1.74225 20.4326 0.553134 16.6107 0.870855 12.7618ZM14.6375 2.5835C11.7985 2.5847 9.06373 3.65291 6.97553 5.57624C4.88734 7.49958 3.59833 10.1375 3.36419 12.9668C3.09966 16.17 4.08919 19.3507 6.12419 21.8385L14.1125 31.6085C14.2199 31.7399 14.3552 31.8458 14.5085 31.9186C14.6619 31.9913 14.8295 32.029 14.9992 32.029C15.1689 32.029 15.3365 31.9913 15.4899 31.9186C15.6432 31.8458 15.7785 31.7399 15.8859 31.6085L23.8742 21.8385C25.908 19.3502 26.8963 16.1695 26.6309 12.9668C26.3967 10.1372 25.1074 7.49906 23.0189 5.57568C20.9303 3.6523 18.1951 2.58428 15.3559 2.5835H14.6375Z" fill="#0D99FF"/>
</svg>
