<svg width="32" height="15" viewBox="0 0 32 15" fill="none" xmlns="http://www.w3.org/2000/svg">
<path d="M28.7072 0.237771C29.3697 0.238183 30.005 0.501543 30.4734 0.970003C30.9419 1.43846 31.2052 2.07371 31.2057 2.73621L31.2163 11.8214C31.2131 12.4835 30.9508 13.118 30.4856 13.5891C30.0165 14.0574 29.3806 14.3202 28.7178 14.3198L2.73282 14.3328C2.06759 14.3311 1.43009 14.0661 0.959697 13.5957C0.489306 13.1253 0.224289 12.4878 0.22259 11.8225L0.234375 2.73621C0.232369 2.40755 0.295624 2.08176 0.420472 1.77773C0.545321 1.4737 0.729278 1.19748 0.96168 0.965078C1.19408 0.732676 1.47031 0.548717 1.77434 0.42387C2.07837 0.29902 2.40416 0.235765 2.73282 0.237772L28.7072 0.237771ZM25.8081 5.77677C25.8085 5.88678 25.7872 5.99579 25.7453 6.09751C25.7034 6.19924 25.6418 6.29166 25.564 6.36945C25.4862 6.44724 25.3938 6.50885 25.2921 6.55074C25.1903 6.59263 25.0813 6.61397 24.9713 6.61352C24.7523 6.60452 24.5447 6.51347 24.3896 6.35846C24.2346 6.20345 24.1436 5.99581 24.1346 5.77677C24.1464 4.46863 24.1464 3.19583 24.1228 1.89947L21.1765 1.89947L21.1765 4.02079C21.1793 4.12987 21.1598 4.23837 21.1193 4.3397C21.0788 4.44103 21.0182 4.53307 20.941 4.61022C20.8638 4.68738 20.7718 4.74805 20.6705 4.78854C20.5691 4.82902 20.4606 4.84849 20.3516 4.84575C20.2416 4.8462 20.1325 4.82487 20.0308 4.78298C19.9291 4.74109 19.8367 4.67947 19.7589 4.60168C19.6811 4.52389 19.6195 4.43147 19.5776 4.32975C19.5357 4.22803 19.5144 4.11902 19.5148 4.00901C19.5266 3.31369 19.5148 2.59479 19.503 1.89947L16.5568 1.89947L16.545 5.77677C16.5428 5.99412 16.4549 6.20183 16.3004 6.35474C16.146 6.50766 15.9374 6.59344 15.72 6.59344C15.5027 6.59344 15.2941 6.50766 15.1396 6.35474C14.9851 6.20182 14.8973 5.99412 14.8951 5.77677C14.8833 4.46863 14.8833 3.19583 14.8833 1.89947L11.937 1.89947L11.937 4.02079C11.9294 4.24321 11.8366 4.45421 11.6777 4.61005C11.5249 4.76473 11.3177 4.85354 11.1002 4.85754C10.8798 4.85288 10.6697 4.76322 10.5137 4.6073C10.3578 4.45138 10.2682 4.24125 10.2635 4.02079L10.2635 1.89947L7.29366 1.89947L7.30544 5.77678C7.30544 5.88666 7.2838 5.99546 7.24175 6.09698C7.1997 6.1985 7.13806 6.29074 7.06037 6.36844C6.98267 6.44614 6.89043 6.50777 6.78891 6.54982C6.68739 6.59187 6.57858 6.61352 6.4687 6.61352C6.35882 6.61352 6.25001 6.59187 6.14849 6.54982C6.04697 6.50777 5.95473 6.44614 5.87703 6.36844C5.79934 6.29074 5.7377 6.1985 5.69565 6.09698C5.6536 5.99546 5.63196 5.88666 5.63196 5.77677C5.64374 4.46863 5.64374 3.19583 5.62017 1.89947L2.72103 1.89947C2.50292 1.90165 2.29435 1.98927 2.14011 2.14351C1.98587 2.29775 1.89826 2.50631 1.89608 2.72443L1.89608 11.8225C1.89563 11.9325 1.91696 12.0416 1.95885 12.1433C2.00074 12.245 2.06236 12.3374 2.14015 12.4152C2.21794 12.493 2.31036 12.5546 2.41208 12.5965C2.5138 12.6384 2.62281 12.6597 2.73282 12.6593L28.7072 12.6593C28.8189 12.6604 28.9296 12.6391 29.0329 12.5966C29.1361 12.554 29.2298 12.4912 29.3083 12.4118C29.4615 12.2542 29.5462 12.0424 29.544 11.8225L29.544 2.72443C29.5377 2.50763 29.4487 2.30144 29.2954 2.14807C29.142 1.99471 28.9358 1.90577 28.719 1.89947L25.7963 1.89947L25.8081 5.77677Z" fill="#0D99FF"/>
</svg>
